<svg width="26" height="25" viewBox="0 0 26 25" fill="none" xmlns="http://www.w3.org/2000/svg">
<path d="M7.47498 2.1L5.68748 0.3125C2.68748 2.6 0.712476 6.125 0.537476 10.125H3.03748C3.12602 8.53976 3.57101 6.99492 4.33931 5.60548C5.10761 4.21605 6.17943 3.01782 7.47498 2.1ZM22.9625 10.125H25.4625C25.275 6.125 23.3 2.6 20.3125 0.3125L18.5375 2.1C19.8275 3.02233 20.8945 4.22189 21.6602 5.61058C22.426 6.99927 22.8709 8.54183 22.9625 10.125ZM20.5 10.75C20.5 6.9125 18.45 3.7 14.875 2.85V2C14.875 0.9625 14.0375 0.125 13 0.125C11.9625 0.125 11.125 0.9625 11.125 2V2.85C7.53748 3.7 5.49998 6.9 5.49998 10.75V17L2.99998 19.5V20.75H23V19.5L20.5 17V10.75ZM13 24.5C13.175 24.5 13.3375 24.4875 13.5 24.45C14.3125 24.275 14.975 23.725 15.3 22.975C15.425 22.675 15.4875 22.35 15.4875 22H10.4875C10.5 23.375 11.6125 24.5 13 24.5Z" fill="white"/>
</svg>
