<svg width="30" height="30" viewBox="0 0 30 30" fill="none" xmlns="http://www.w3.org/2000/svg">
<path d="M9.375 15C9.375 14.7514 9.47377 14.5129 9.64959 14.3371C9.8254 14.1613 10.0639 14.0625 10.3125 14.0625H18.75V7.96875C18.75 6.09375 16.7701 4.6875 15 4.6875H6.09375C5.22379 4.68843 4.38974 5.03443 3.77458 5.64958C3.15943 6.26474 2.81343 7.09879 2.8125 7.96875V22.0312C2.81343 22.9012 3.15943 23.7353 3.77458 24.3504C4.38974 24.9656 5.22379 25.3116 6.09375 25.3125H15.4688C16.3387 25.3116 17.1728 24.9656 17.7879 24.3504C18.4031 23.7353 18.7491 22.9012 18.75 22.0312V15.9375H10.3125C10.0639 15.9375 9.8254 15.8387 9.64959 15.6629C9.47377 15.4871 9.375 15.2486 9.375 15Z" fill="white"/>
<path d="M26.9127 14.3374L22.2252 9.64992C22.0479 9.48153 21.8119 9.38904 21.5675 9.39217C21.323 9.3953 21.0894 9.4938 20.9166 9.66668C20.7437 9.83955 20.6452 10.0731 20.642 10.3176C20.6389 10.5621 20.7314 10.7981 20.8998 10.9753L23.9865 14.0626H18.75V15.9376H23.9865L20.8998 19.0249C20.8091 19.1111 20.7365 19.2146 20.6864 19.3293C20.6363 19.4439 20.6097 19.5675 20.6081 19.6926C20.6065 19.8177 20.63 19.9419 20.6771 20.0578C20.7243 20.1737 20.7941 20.279 20.8826 20.3675C20.9711 20.456 21.0764 20.5259 21.1923 20.573C21.3082 20.6202 21.4324 20.6436 21.5575 20.642C21.6827 20.6404 21.8062 20.6138 21.9209 20.5637C22.0355 20.5136 22.139 20.441 22.2252 20.3503L26.9127 15.6628C27.0884 15.487 27.1871 15.2487 27.1871 15.0001C27.1871 14.7516 27.0884 14.5132 26.9127 14.3374Z" fill="white"/>
</svg>
