<svg width="72" height="72" viewBox="0 0 72 72" fill="none" xmlns="http://www.w3.org/2000/svg">
<path d="M46.8 21.6C46.8 24.4644 45.6621 27.2114 43.6367 29.2368C41.6113 31.2622 38.8643 32.4 36 32.4C33.1356 32.4 30.3886 31.2622 28.3632 29.2368C26.3378 27.2114 25.2 24.4644 25.2 21.6C25.2 18.7357 26.3378 15.9887 28.3632 13.9633C30.3886 11.9379 33.1356 10.8 36 10.8C38.8643 10.8 41.6113 11.9379 43.6367 13.9633C45.6621 15.9887 46.8 18.7357 46.8 21.6Z" fill="#626262"/>
<path d="M64.8 28.8001C64.8 30.7097 64.0415 32.541 62.6912 33.8913C61.3409 35.2415 59.5096 36.0001 57.6 36.0001C55.6905 36.0001 53.8591 35.2415 52.5089 33.8913C51.1586 32.541 50.4 30.7097 50.4 28.8001C50.4 26.8905 51.1586 25.0592 52.5089 23.7089C53.8591 22.3587 55.6905 21.6001 57.6 21.6001C59.5096 21.6001 61.3409 22.3587 62.6912 23.7089C64.0415 25.0592 64.8 26.8905 64.8 28.8001Z" fill="#626262"/>
<path d="M50.4 54.0001C50.4 50.181 48.8828 46.5183 46.1823 43.8178C43.4818 41.1172 39.8191 39.6001 36 39.6001C32.1809 39.6001 28.5182 41.1172 25.8176 43.8178C23.1171 46.5183 21.6 50.181 21.6 54.0001V64.8001H50.4V54.0001Z" fill="#626262"/>
<path d="M21.6 28.8001C21.6 30.7097 20.8414 32.541 19.4911 33.8913C18.1409 35.2415 16.3095 36.0001 14.4 36.0001C12.4904 36.0001 10.659 35.2415 9.30878 33.8913C7.95852 32.541 7.19995 30.7097 7.19995 28.8001C7.19995 26.8905 7.95852 25.0592 9.30878 23.7089C10.659 22.3587 12.4904 21.6001 14.4 21.6001C16.3095 21.6001 18.1409 22.3587 19.4911 23.7089C20.8414 25.0592 21.6 26.8905 21.6 28.8001Z" fill="#626262"/>
<path d="M57.6 64.8V54C57.6052 50.3398 56.6759 46.7389 54.9 43.5384C56.4961 43.13 58.1643 43.0915 59.7775 43.4258C61.3907 43.7602 62.9063 44.4586 64.2085 45.4677C65.5107 46.4768 66.5653 47.7701 67.2917 49.2488C68.0181 50.7275 68.3972 52.3525 68.4 54V64.8H57.6Z" fill="#626262"/>
<path d="M17.1 43.5385C15.3243 46.7391 14.3949 50.3399 14.4 54.0001V64.8001H3.59998V54.0001C3.59928 52.3514 3.97604 50.7245 4.70139 49.244C5.42673 47.7635 6.48139 46.4687 7.78456 45.4588C9.08772 44.4489 10.6048 43.7508 12.2195 43.418C13.8342 43.0851 15.5037 43.1263 17.1 43.5385Z" fill="#626262"/>
</svg>
