<svg width="32" height="32" viewBox="0 0 32 32" fill="current" stroke="current" xmlns="http://www.w3.org/2000/svg">
<path d="M23.5781 25.137H21.5014C21.4287 25.137 21.3567 25.1513 21.2895 25.1791C21.2223 25.2069 21.1613 25.2477 21.1099 25.2991C21.0585 25.3505 21.0177 25.4115 20.9899 25.4787C20.9621 25.5459 20.9478 25.6179 20.9478 25.6906H20.9455V26.6538H7.94039V11.5712H13.6118C13.7586 11.5712 13.8994 11.5129 14.0032 11.4091C14.107 11.3052 14.1653 11.1644 14.1653 11.0176V5.34624H20.9455V11.9469H20.9481C20.9484 12.0935 21.0069 12.234 21.1107 12.3375C21.2145 12.4411 21.3551 12.4992 21.5017 12.4992H23.5785C23.8838 12.4992 24.1311 12.2522 24.1318 11.9469V11.9453V4H24.1301V2.7136C24.1301 2.56678 24.0718 2.42597 23.968 2.32215C23.8642 2.21833 23.7234 2.16 23.5766 2.16H13.0582L4.75415 10.464V29.2861C4.75415 29.592 5.00183 29.8397 5.30775 29.8397H23.5762C23.7231 29.8397 23.8639 29.7814 23.9677 29.6775C24.0715 29.5737 24.1298 29.4329 24.1298 29.2861V28.5027H24.1314V25.6899C24.1314 25.6173 24.1171 25.5453 24.0893 25.4782C24.0615 25.4111 24.0207 25.3502 23.9694 25.2988C23.918 25.2475 23.857 25.2067 23.7899 25.179C23.7227 25.1512 23.6508 25.1369 23.5781 25.137Z" fill="white"/>
<path d="M26.6921 17.1398H24.2009V14.6486C24.2009 14.5018 24.1425 14.361 24.0387 14.2572C23.9349 14.1534 23.7941 14.095 23.6473 14.095H21.4329C21.3602 14.095 21.2882 14.1094 21.221 14.1372C21.1539 14.165 21.0928 14.2058 21.0414 14.2572C20.99 14.3086 20.9492 14.3696 20.9214 14.4368C20.8936 14.504 20.8793 14.5759 20.8793 14.6486V17.1398H18.3881C18.2412 17.1398 18.1004 17.1982 17.9966 17.302C17.8928 17.4058 17.8345 17.5466 17.8345 17.6934V19.9078C17.8345 20.2134 18.0822 20.4614 18.3881 20.4614H20.8793V22.9526C20.8792 23.0254 20.8935 23.0974 20.9213 23.1646C20.9491 23.2318 20.9899 23.2929 21.0413 23.3443C21.0927 23.3957 21.1538 23.4366 21.2209 23.4644C21.2881 23.4922 21.3601 23.5066 21.4329 23.5066H23.6473C23.72 23.5066 23.792 23.4922 23.8592 23.4644C23.9264 23.4366 23.9874 23.3957 24.0388 23.3443C24.0903 23.2929 24.131 23.2318 24.1588 23.1646C24.1866 23.0974 24.2009 23.0254 24.2009 22.9526V20.4614H26.6921C26.8389 20.4614 26.9797 20.4031 27.0835 20.2993C27.1873 20.1955 27.2457 20.0547 27.2457 19.9078V17.6934C27.2457 17.5466 27.1873 17.4058 27.0835 17.302C26.9797 17.1982 26.8389 17.1398 26.6921 17.1398Z" fill="white"/>
</svg>
