<?xml version="1.0" encoding="utf-8"?>
<!-- Generator: Adobe Illustrator 24.3.0, SVG Export Plug-In . SVG Version: 6.00 Build 0)  -->
<svg version="1.1" id="Layer_1" xmlns="http://www.w3.org/2000/svg" xmlns:xlink="http://www.w3.org/1999/xlink" x="0px" y="0px"
	 viewBox="0 0 2480 3508" style="enable-background:new 0 0 2480 3508;" xml:space="preserve">
<style type="text/css">
	.st0{fill:#FFFFFF;}
	.st1{fill:none;stroke:#707071;stroke-width:0.2;}
	.st2{fill:none;stroke:#707071;stroke-width:2;}
	.st3{fill:none;stroke:#4E3535;}
</style>
<g id="Rectangle_1">
	<rect x="0" y="0" class="st0" width="2480" height="3508"/>
	<rect x="0.1" y="0.1" class="st1" width="2479.8" height="3507.8"/>
</g>
<line id="Line_1" class="st2" x1="0" y1="354" x2="2480" y2="354"/>
<path id="Path_1" class="st3" d="M59.05,534.47h2361.9"/>
<path id="Path_1-2" class="st3" d="M59.05,723.45h2361.9"/>
<path id="Path_1-3" class="st3" d="M59.05,912.43h2361.9"/>
<path id="Path_1-4" class="st3" d="M59.05,1101.42h2361.9"/>
<path id="Path_1-5" class="st3" d="M59.05,1290.4h2361.9"/>
<path id="Path_1-6" class="st3" d="M59.05,1479.38h2361.9"/>
<path id="Path_1-7" class="st3" d="M59.05,1668.37h2361.9"/>
<path id="Path_1-8" class="st3" d="M59.05,1857.35h2361.9"/>
<path id="Path_1-9" class="st3" d="M59.05,2046.33h2361.9"/>
<path id="Path_1-10" class="st3" d="M59.05,2235.32h2361.9"/>
<path id="Path_1-11" class="st3" d="M59.05,2424.3h2361.9"/>
<path id="Path_1-12" class="st3" d="M59.05,2613.28h2361.9"/>
<path id="Path_1-13" class="st3" d="M59.05,2802.27h2361.9"/>
<path id="Path_1-14" class="st3" d="M59.05,2991.25h2361.9"/>
<path id="Path_1-15" class="st3" d="M59.05,3180.23h2361.9"/>
<path id="Path_1-16" class="st3" d="M59.05,3369.22h2361.9"/>
</svg>
