<svg width="32" height="32" viewBox="0 0 32 32" fill="none" xmlns="http://www.w3.org/2000/svg">
<g clip-path="url(#clip0)">
<path d="M9 13C7.89375 13 7 13.8938 7 15C7 16.1062 7.89375 17 9 17C10.1062 17 11 16.1062 11 15C11 13.8938 10.1062 13 9 13ZM16 13C14.8937 13 14 13.8938 14 15C14 16.1062 14.8937 17 16 17C17.1062 17 18 16.1062 18 15C18 13.8938 17.1062 13 16 13ZM23 13C21.8937 13 21 13.8938 21 15C21 16.1062 21.8937 17 23 17C24.1062 17 25 16.1062 25 15C25 13.8938 24.1062 13 23 13ZM16 2C7.1625 2 -2.37813e-06 7.81875 -2.37813e-06 15C-2.37813e-06 17.975 1.24375 20.7 3.30625 22.8937C2.375 25.3562 0.437498 27.4438 0.406248 27.4688C-0.00625238 27.9062 -0.118752 28.5438 0.118748 29.0938C0.356248 29.6437 0.899998 30 1.5 30C5.34375 30 8.375 28.3938 10.1937 27.1063C12 27.675 13.95 28 16 28C24.8375 28 32 22.1812 32 15C32 7.81875 24.8375 2 16 2ZM16 25C14.3312 25 12.6812 24.7437 11.1 24.2437L9.68125 23.7938L8.4625 24.6562C7.56875 25.2875 6.34375 25.9937 4.86875 26.4688C5.325 25.7125 5.76875 24.8625 6.1125 23.9562L6.775 22.2L5.4875 20.8375C4.35625 19.6313 3 17.6375 3 15C3 9.4875 8.83125 5 16 5C23.1687 5 29 9.4875 29 15C29 20.5125 23.1687 25 16 25Z" fill="white"/>
</g>
<defs>
<clipPath id="clip0">
<rect width="32" height="32" fill="white"/>
</clipPath>
</defs>
</svg>
