<svg width="32" height="32" viewBox="0 0 32 32" fill="none" xmlns="http://www.w3.org/2000/svg">
<path d="M25.7778 28.6944H26.0278V28.4444V8V7.75H25.7778H9.77778H9.52778V8V28.4444V28.6944H9.77778H25.7778ZM9.33333 6.47222H26.2222C26.5095 6.47222 26.7851 6.58636 26.9883 6.78952C27.1914 6.99269 27.3056 7.26824 27.3056 7.55555V28.8889C27.3056 29.1762 27.1914 29.4518 26.9883 29.6549C26.7851 29.8581 26.5095 29.9722 26.2222 29.9722H9.33333C9.04601 29.9722 8.77046 29.8581 8.5673 29.6549C8.36414 29.4518 8.25 29.1762 8.25 28.8889V7.55555C8.25 7.26824 8.36414 6.99269 8.5673 6.78952C8.77047 6.58636 9.04602 6.47222 9.33333 6.47222Z" fill="white" stroke="white" stroke-width="0.5"/>
<path d="M23.1112 4.11111C23.1112 3.75749 22.9707 3.41835 22.7207 3.1683C22.4706 2.91825 22.1315 2.77778 21.7779 2.77778H4.889C4.53538 2.77778 4.19624 2.91825 3.94619 3.1683C3.69614 3.41835 3.55566 3.75749 3.55566 4.11111V25.4444C3.55566 25.7981 3.69614 26.1372 3.94619 26.3873C4.19624 26.6373 4.53538 26.7778 4.889 26.7778H5.33344V4.55556H23.1112V4.11111Z" fill="white" stroke="white" stroke-width="0.5"/>
</svg>
