<svg width="32" height="32" viewBox="0 0 32 32" fill="none" xmlns="http://www.w3.org/2000/svg">
<path d="M16.1719 4.414C16.922 3.66412 17.9392 3.24286 18.9999 3.24286C20.0605 3.24286 21.0778 3.66412 21.8279 4.414L29.5859 12.172C30.3358 12.9221 30.757 13.9393 30.757 15C30.757 16.0607 30.3358 17.0779 29.5859 17.828L18.5859 28.828C17.8359 29.5782 16.8186 29.9998 15.7579 30H10.2399C9.17909 29.9998 8.16184 29.5782 7.41187 28.828L2.41187 23.828C1.66198 23.0779 1.24072 22.0607 1.24072 21C1.24072 19.9393 1.66198 18.9221 2.41187 18.172L16.1699 4.414H16.1719ZM20.4139 5.828C20.0388 5.45306 19.5302 5.24243 18.9999 5.24243C18.4695 5.24243 17.9609 5.45306 17.5859 5.828L8.31987 15.094L18.9059 25.68L28.1719 16.414C28.5468 16.0389 28.7574 15.5303 28.7574 15C28.7574 14.4697 28.5468 13.9611 28.1719 13.586L20.4139 5.828V5.828ZM17.4919 27.094L6.90587 16.508L3.82787 19.586C3.45293 19.9611 3.2423 20.4697 3.2423 21C3.2423 21.5303 3.45293 22.0389 3.82787 22.414L8.82787 27.414C9.20285 27.7891 9.71148 27.9999 10.2419 28H15.7599C16.2903 27.9999 16.7989 27.7891 17.1739 27.414L17.4939 27.094H17.4919Z" fill="white"/>
</svg>
