<svg width="32" height="32" viewBox="0 0 32 32" fill="none" xmlns="http://www.w3.org/2000/svg">
<path d="M27.012 2.672C27.2536 2.67238 27.4869 2.76023 27.6688 2.9193C27.8507 3.07837 27.9688 3.29792 28.0013 3.53734L28.0107 3.67334L28.0053 9.66934C28.0035 10.4067 27.7306 11.1176 27.2386 11.6668C26.7467 12.216 26.07 12.5652 25.3373 12.648V15.6613C25.3374 16.4215 25.0489 17.1534 24.5302 17.709C24.0114 18.2647 23.3011 18.6026 22.5427 18.6547L22.3373 18.6613H22V22.384C22.0002 22.9147 21.8596 23.436 21.5926 23.8946C21.3256 24.3533 20.9416 24.7329 20.48 24.9947L20.2733 25.1013L11.4267 29.2427C11.2846 29.3091 11.1288 29.3412 10.972 29.3364C10.8152 29.3315 10.6617 29.2898 10.524 29.2146C10.3863 29.1395 10.2682 29.033 10.1792 28.9037C10.0903 28.7745 10.033 28.6261 10.012 28.4707L10.0027 28.3373V18.6613H9.66667C8.9065 18.6614 8.17464 18.3729 7.619 17.8542C7.06335 17.3354 6.72536 16.6251 6.67333 15.8667L6.66667 15.6613V12.648C5.97074 12.5702 5.32397 12.2514 4.8384 11.7468C4.35283 11.2423 4.05906 10.5837 4.008 9.88534L4 9.66667V3.672C4.00008 3.41864 4.09633 3.17475 4.2693 2.98961C4.44227 2.80448 4.67906 2.6919 4.93184 2.67463C5.18462 2.65737 5.43452 2.73669 5.63107 2.89658C5.82761 3.05647 5.95613 3.285 5.99067 3.536L6 3.672V9.66667C6 10.1733 6.376 10.592 6.864 10.6587L7 10.6667H25.0013C25.508 10.6667 25.928 10.2893 25.996 9.80134L26.0053 9.66667L26.0107 3.67067C26.0107 3.40545 26.116 3.1511 26.3036 2.96356C26.4911 2.77603 26.7455 2.67067 27.0107 2.67067L27.012 2.672ZM20 18.6613H12.004V26.764L19.4267 23.2893C19.5767 23.219 19.7069 23.1125 19.8056 22.9794C19.9043 22.8462 19.9683 22.6907 19.992 22.5267L20.0027 22.384L20 18.6613ZM23.336 12.6667H8.66667V15.6613C8.66667 16.168 9.04267 16.5867 9.53067 16.652L9.66667 16.6613H22.3373C22.579 16.6613 22.8125 16.5738 22.9946 16.415C23.1767 16.2561 23.2951 16.0367 23.328 15.7973L23.3373 15.6613L23.336 12.6667Z" fill="white"/>
</svg>
