<svg width="32" height="32" viewBox="0 0 32 32" fill="none" xmlns="http://www.w3.org/2000/svg">
<path d="M16.0284 0.500025C20.1702 0.507463 23.9308 2.13959 26.7072 4.79284L28.9393 2.56071C29.8843 1.61571 31.5 2.28496 31.5 3.62134V12C31.5 12.8285 30.8284 13.5 30 13.5H21.6213C20.2849 13.5 19.6157 11.8843 20.5606 10.9393L23.17 8.32996C21.241 6.52378 18.7449 5.52328 16.0931 5.5004C10.3183 5.45053 5.45044 10.124 5.50038 16.0905C5.54775 21.7506 10.1365 26.5 16 26.5C18.5704 26.5 20.9998 25.5826 22.9144 23.9028C23.2108 23.6427 23.6585 23.6585 23.9374 23.9373L26.4163 26.4162C26.7208 26.7207 26.7057 27.2172 26.3861 27.5058C23.6376 29.9883 19.9954 31.5 16 31.5C7.43962 31.5 0.500063 24.5605 0.5 16.0002C0.499937 7.44959 7.47787 0.484713 16.0284 0.500025Z" fill="white" fill-opacity="0.8"/>
</svg>
