<svg width="32" height="32" viewBox="0 0 32 32" fill="none" xmlns="http://www.w3.org/2000/svg">
<path d="M24.025 25.9C21.425 28 18.15 29 14.825 28.675C12.2 28.425 9.75 27.4 7.775 25.725H11V23.725H4.5V30.225H6.5V27.25C8.775 29.175 11.6 30.375 14.65 30.65C15.125 30.7 15.575 30.725 16.025 30.725C19.4 30.725 22.65 29.575 25.275 27.425C30.05 23.575 31.925 17.3 30.05 11.45L28.15 12.05C29.75 17.15 28.15 22.575 24.025 25.9Z" fill="white"/>
<path d="M25.7501 4.92501C20.4501 0.250011 12.3751 -0.074989 6.7251 4.52501C1.9751 8.37501 0.100103 14.6 1.9251 20.425L3.8251 19.825C2.2501 14.8 3.8751 9.40001 7.9751 6.10001C12.9001 2.10001 19.9251 2.40001 24.5001 6.50001H21.2501V8.50001H27.7501V2.00001H25.7501V4.92501Z" fill="white"/>
</svg>
