<svg width="31" height="31" viewBox="0 0 31 31" fill="none" xmlns="http://www.w3.org/2000/svg">
<path d="M28.6369 7.40755L22.6237 1.39434C22.4891 1.25898 22.329 1.15167 22.1526 1.07862C21.9763 1.00557 21.7872 0.968223 21.5963 0.968752H3.39062C3.00537 0.9692 2.63602 1.12244 2.36361 1.39486C2.09119 1.66727 1.93795 2.03662 1.9375 2.42188V28.5781C1.93795 28.9634 2.09119 29.3327 2.36361 29.6051C2.63602 29.8776 3.00537 30.0308 3.39062 30.0313H27.6094C27.9946 30.0308 28.364 29.8776 28.6364 29.6051C28.9088 29.3327 29.0621 28.9634 29.0625 28.5781V8.43497C29.063 8.24408 29.0257 8.05498 28.9526 7.87862C28.8796 7.70227 28.7723 7.54215 28.6369 7.40755ZM19.375 2.90625V8.71875H10.6562V2.90625H19.375ZM27.125 28.0938H3.875V2.90625H8.71875V10.6563H21.3125V2.90625H21.3956L27.125 8.63562V28.0938Z" fill="white"/>
<path d="M15.2578 13.5625C14.1561 13.5625 13.0791 13.8892 12.1631 14.5013C11.2471 15.1133 10.5331 15.9833 10.1115 17.0011C9.68991 18.019 9.5796 19.139 9.79453 20.2195C10.0095 21.3001 10.54 22.2926 11.319 23.0716C12.098 23.8506 13.0906 24.3812 14.1711 24.5961C15.2516 24.811 16.3716 24.7007 17.3895 24.2791C18.4073 23.8575 19.2773 23.1435 19.8894 22.2275C20.5014 21.3115 20.8281 20.2345 20.8281 19.1328C20.8265 17.656 20.2391 16.2401 19.1948 15.1958C18.1506 14.1515 16.7347 13.5641 15.2578 13.5625ZM15.2578 22.7656C14.5393 22.7656 13.8369 22.5526 13.2395 22.1534C12.6421 21.7542 12.1765 21.1868 11.9015 20.523C11.6266 19.8592 11.5546 19.1288 11.6948 18.4241C11.835 17.7194 12.181 17.0721 12.689 16.564C13.1971 16.056 13.8444 15.71 14.5491 15.5698C15.2538 15.4296 15.9842 15.5016 16.648 15.7765C17.3118 16.0515 17.8792 16.5171 18.2784 17.1145C18.6776 17.7119 18.8906 18.4143 18.8906 19.1328C18.8895 20.096 18.5064 21.0193 17.8254 21.7004C17.1443 22.3814 16.221 22.7645 15.2578 22.7656Z" fill="white"/>
</svg>
