<svg width="32" height="32" viewBox="0 0 32 32" fill="none" xmlns="http://www.w3.org/2000/svg">
<path d="M28.8999 19.5531L26.853 17.8031C26.9499 17.2094 26.9999 16.6031 26.9999 15.9969C26.9999 15.3906 26.9499 14.7844 26.853 14.1906L28.8999 12.4406C29.0543 12.3084 29.1648 12.1324 29.2167 11.9359C29.2686 11.7394 29.2595 11.5318 29.1905 11.3406L29.1624 11.2594C28.5989 9.68444 27.7551 8.22447 26.6718 6.94999L26.6155 6.88436C26.4841 6.72984 26.309 6.61876 26.1131 6.56576C25.9173 6.51277 25.7101 6.52034 25.5187 6.58749L22.978 7.49061C22.0405 6.72186 20.9937 6.11561 19.8624 5.69061L19.3718 3.03436C19.3348 2.83449 19.2378 2.65062 19.0938 2.50717C18.9498 2.36372 18.7655 2.26748 18.5655 2.23124L18.4812 2.21561C16.853 1.92186 15.1405 1.92186 13.5124 2.21561L13.428 2.23124C13.228 2.26748 13.0438 2.36372 12.8998 2.50717C12.7558 2.65062 12.6588 2.83449 12.6218 3.03436L12.128 5.70311C11.0058 6.1282 9.96074 6.73413 9.03428 7.49686L6.47491 6.58749C6.28355 6.51981 6.07613 6.51196 5.88021 6.56499C5.68428 6.61801 5.50913 6.72941 5.37803 6.88436L5.32178 6.94999C4.23974 8.22538 3.39608 9.6851 2.83116 11.2594L2.80303 11.3406C2.66241 11.7312 2.77803 12.1687 3.09366 12.4406L5.16553 14.2094C5.06866 14.7969 5.02178 15.3969 5.02178 15.9937C5.02178 16.5937 5.06866 17.1937 5.16553 17.7781L3.09366 19.5469C2.93927 19.679 2.82877 19.8551 2.77686 20.0516C2.72494 20.248 2.73407 20.4557 2.80303 20.6469L2.83116 20.7281C3.39678 22.3031 4.23428 23.7562 5.32178 25.0375L5.37803 25.1031C5.50945 25.2576 5.68461 25.3687 5.88042 25.4217C6.07622 25.4747 6.28349 25.4671 6.47491 25.4L9.03428 24.4906C9.96553 25.2562 11.0062 25.8625 12.128 26.2844L12.6218 28.9531C12.6588 29.153 12.7558 29.3369 12.8998 29.4803C13.0438 29.6238 13.228 29.72 13.428 29.7562L13.5124 29.7719C15.1555 30.0672 16.8381 30.0672 18.4812 29.7719L18.5655 29.7562C18.7655 29.72 18.9498 29.6238 19.0938 29.4803C19.2378 29.3369 19.3348 29.153 19.3718 28.9531L19.8624 26.2969C20.9932 25.873 22.046 25.2648 22.978 24.4969L25.5187 25.4C25.71 25.4677 25.9174 25.4755 26.1134 25.4225C26.3093 25.3695 26.4844 25.2581 26.6155 25.1031L26.6718 25.0375C27.7593 23.7531 28.5968 22.3031 29.1624 20.7281L29.1905 20.6469C29.3312 20.2625 29.2155 19.825 28.8999 19.5531ZM24.6343 14.5594C24.7124 15.0312 24.753 15.5156 24.753 16C24.753 16.4844 24.7124 16.9687 24.6343 17.4406L24.428 18.6937L26.7624 20.6906C26.4085 21.5059 25.9618 22.2777 25.4312 22.9906L22.5312 21.9625L21.5499 22.7687C20.803 23.3812 19.9718 23.8625 19.0718 24.2L17.8812 24.6469L17.3218 27.6781C16.4392 27.7781 15.5481 27.7781 14.6655 27.6781L14.1062 24.6406L12.9249 24.1875C12.0343 23.85 11.2062 23.3687 10.4655 22.7594L9.48428 21.95L6.56553 22.9875C6.03428 22.2719 5.59053 21.5 5.23428 20.6875L7.59366 18.6719L7.39053 17.4219C7.31553 16.9562 7.27491 16.475 7.27491 16C7.27491 15.5219 7.31241 15.0437 7.39053 14.5781L7.59366 13.3281L5.23428 11.3125C5.58741 10.4969 6.03428 9.72811 6.56553 9.01249L9.48428 10.05L10.4655 9.24061C11.2062 8.63124 12.0343 8.14999 12.9249 7.81249L14.1093 7.36561L14.6687 4.32811C15.5468 4.22811 16.4437 4.22811 17.3249 4.32811L17.8843 7.35936L19.0749 7.80624C19.9718 8.14374 20.8062 8.62499 21.553 9.23749L22.5343 10.0437L25.4343 9.01561C25.9655 9.73124 26.4093 10.5031 26.7655 11.3156L24.4312 13.3125L24.6343 14.5594ZM15.9999 10.1875C12.9624 10.1875 10.4999 12.65 10.4999 15.6875C10.4999 18.725 12.9624 21.1875 15.9999 21.1875C19.0374 21.1875 21.4999 18.725 21.4999 15.6875C21.4999 12.65 19.0374 10.1875 15.9999 10.1875ZM18.4749 18.1625C18.1503 18.488 17.7645 18.7462 17.3397 18.9221C16.915 19.098 16.4596 19.1882 15.9999 19.1875C15.0655 19.1875 14.1874 18.8219 13.5249 18.1625C13.1994 17.8379 12.9412 17.4521 12.7653 17.0273C12.5894 16.6026 12.4992 16.1472 12.4999 15.6875C12.4999 14.7531 12.8655 13.875 13.5249 13.2125C14.1874 12.55 15.0655 12.1875 15.9999 12.1875C16.9343 12.1875 17.8124 12.55 18.4749 13.2125C18.8005 13.5371 19.0586 13.9229 19.2345 14.3476C19.4104 14.7724 19.5006 15.2277 19.4999 15.6875C19.4999 16.6219 19.1343 17.5 18.4749 18.1625Z" fill="white"/>
</svg>
